<svg width="48" height="56" viewBox="0 0 48 56" fill="none" xmlns="http://www.w3.org/2000/svg">
<g id="Group">
<path id="Vector" d="M26.5994 0.972046C27.704 0.972046 28.5995 1.86751 28.5995 2.97208C28.5995 5.5365 28.5995 8.07987 28.5995 10.6517C28.5995 11.7563 29.4949 12.6518 30.5995 12.6518C33.5143 12.6518 36.4072 12.6518 39.3159 12.6518C40.4205 12.6518 41.3159 13.5472 41.3159 14.6518C41.3159 19.8272 41.3159 24.955 41.3159 30.1315C41.3159 31.236 40.4205 32.1333 39.3159 32.1405C37.9101 32.1497 36.5153 32.1572 35.1222 32.1145C33.9137 32.0772 32.8475 32.3249 31.7832 32.8406C29.6915 33.8533 27.5592 34.7982 25.425 35.7346C24.9076 35.962 24.7247 36.2368 24.7302 36.7644C24.758 39.9858 24.7376 43.209 24.7469 46.4304C24.7486 47.0362 24.814 47.6248 24.9417 48.1993C25.2975 49.8008 24.3036 51.752 22.6631 51.752C16.0291 51.752 9.44788 51.752 2.83272 51.752C1.72824 51.752 0.832804 50.8568 0.832692 49.7523C0.831122 34.1867 0.831057 18.6053 0.831055 2.97208C0.831055 1.86751 1.72648 0.972046 2.83105 0.972046C10.7212 0.972046 18.6157 0.972046 26.5994 0.972046ZM6.37994 22.9514C6.37994 23.7782 7.05025 24.4587 7.87706 24.4587C16.7078 24.4587 25.4842 24.4587 34.2478 24.4587C35.0746 24.4587 35.7449 23.7623 35.7449 22.9355C35.7449 22.1087 35.0745 21.4645 34.2477 21.4645C25.4343 21.4645 16.6726 21.4645 7.87704 21.4645C7.05023 21.4645 6.37994 22.1246 6.37994 22.9514ZM6.38918 29.7623C6.38918 30.5933 7.06289 31.2612 7.89392 31.2612C13.0064 31.2612 18.0842 31.2612 23.1812 31.2612C24.0122 31.2612 24.6859 30.5806 24.6859 29.7495C24.6859 28.9185 24.0122 28.2518 23.1812 28.2518C18.0724 28.2518 12.9936 28.2518 7.8939 28.2518C7.06288 28.2518 6.38918 28.9312 6.38918 29.7623ZM17.3243 13.4522C17.3243 12.6133 16.6442 11.9376 15.8052 11.9376C13.1686 11.9376 10.5538 11.9376 7.92311 11.9376C7.08412 11.9376 6.40396 12.633 6.40396 13.472C6.40396 14.311 7.08414 14.9758 7.92313 14.9758C10.5695 14.9758 13.185 14.9758 15.8052 14.9758C16.6442 14.9758 17.3243 14.2912 17.3243 13.4522ZM17.3262 39.2574C17.3262 38.4184 16.646 37.7466 15.807 37.7466C13.1694 37.7466 10.5539 37.7466 7.92495 37.7466C7.08596 37.7466 6.40581 38.442 6.40581 39.281C6.40581 40.12 7.08598 40.7848 7.92497 40.7848C10.5712 40.7848 13.186 40.7848 15.807 40.7848C16.646 40.7848 17.3262 40.0964 17.3262 39.2574Z" fill="#8EDB8B"/>
<path id="Vector_2" d="M28.2087 42.7242C28.2087 41.3671 28.1736 40.0083 28.2364 38.6545C28.2512 38.3475 28.5283 37.92 28.8184 37.7775C30.4168 36.9921 32.0484 36.2643 33.6855 35.5484C34.031 35.3974 34.4394 35.3516 34.8274 35.2974C35.099 35.26 35.3799 35.2906 35.6571 35.2906C41.4443 35.2906 41.4499 35.2821 46.5645 37.7707C46.8546 37.9115 47.1355 38.3543 47.141 38.6596C47.1854 41.289 47.1632 43.9185 47.1669 46.5479C47.1687 48.1001 46.4777 49.3944 45.3967 50.5361C43.4122 52.6346 40.8752 53.9917 38.1183 55.0367C37.891 55.1232 37.5603 55.1418 37.3386 55.057C34.4671 53.9662 31.8211 52.5599 29.7922 50.3342C28.7057 49.1417 28.1477 47.7795 28.2013 46.2035C28.2419 45.0432 28.2087 43.8828 28.2087 42.7242ZM33.5026 41.9184C32.5713 42.7174 31.7564 43.418 31.0376 44.0355C32.8891 45.7624 34.735 47.4826 36.4719 49.1027C39.0995 46.7073 41.7455 44.2951 44.2844 41.9812C43.5674 41.2958 42.8117 40.5715 41.9229 39.7216C40.1379 41.3789 38.3327 43.055 36.4609 44.7938C35.4316 43.7946 34.4246 42.8141 33.5026 41.9184Z" fill="#168C4E"/>
<path id="Vector_3" d="M39.1848 9.48415C36.997 9.48415 34.5912 9.48415 32.1226 9.48415C32.1226 7.23473 32.1226 5.01754 32.1226 3.02087C34.4193 5.12441 36.8418 7.3416 39.1848 9.48415Z" fill="#8EDB8B"/>
</g>
</svg>
