<svg width="56" height="48" viewBox="0 0 56 48" fill="none" xmlns="http://www.w3.org/2000/svg">
<g id="Group">
<path id="Vector" d="M32.9168 30.2975C32.9168 29.1462 32.9218 28.073 32.9151 26.9982C32.9083 25.7437 32.3307 25.1614 31.0704 25.1564C28.9818 25.1497 26.8932 25.1497 24.8046 25.1564C23.5613 25.1614 23.009 25.6938 22.987 26.9383C22.9667 28.1246 22.9819 29.3109 22.9819 30.622C21.3219 30.251 19.7703 29.9065 18.2187 29.5571C13.4452 28.4823 8.67513 27.3892 3.8949 26.3377C1.8334 25.8835 0.889891 24.8153 0.889891 22.7538C0.888197 19.3979 0.884809 16.0437 0.889891 12.6878C0.893279 10.3718 2.26027 9.02408 4.62836 9.02242C20.209 9.01743 35.7896 9.01743 51.3703 9.02242C53.7401 9.02242 55.1054 10.3701 55.1088 12.6878C55.1138 16.0703 55.1138 19.4545 55.1088 22.837C55.1071 24.7271 54.1974 25.8968 52.3494 26.2828C46.3732 27.529 40.3937 28.7519 34.4142 29.9831C33.9517 30.0796 33.4876 30.1777 32.9168 30.2975Z" fill="#8EDB8B"/>
<path id="Vector_2" d="M52.3888 29.4838C52.3888 29.7966 52.3888 30.0695 52.3888 30.344C52.3888 34.1724 52.3922 37.9992 52.3871 41.8276C52.3837 45.0704 50.29 47.1318 47.0021 47.1335C34.2978 47.1352 21.5917 47.0952 8.88733 47.1651C6.07713 47.1801 3.43462 45.077 3.52778 41.9058C3.64128 38.0541 3.55489 34.1957 3.55489 30.3407C3.55489 30.0695 3.55489 29.7983 3.55489 29.4456C6.20756 30.0362 8.75521 30.6002 11.3012 31.1726C14.9244 31.9862 18.5427 32.8214 22.171 33.6067C22.7774 33.7382 23.0468 33.9378 22.9926 34.5751C22.9367 35.2356 22.957 35.9061 22.9909 36.57C23.0434 37.5916 23.6075 38.1806 24.6424 38.1972C26.8445 38.2305 29.0466 38.2321 31.2487 38.1972C32.3074 38.1806 32.8935 37.535 32.9121 36.4951C32.9257 35.7181 32.9511 34.9395 32.9037 34.1658C32.8715 33.65 33.068 33.4187 33.5609 33.3189C36.8437 32.655 40.1248 31.9845 43.4043 31.3074C46.2416 30.7217 49.0772 30.1211 51.9145 29.5304C52.0432 29.5038 52.1804 29.5038 52.3888 29.4838Z" fill="#8EDB8B"/>
<path id="Vector_3" d="M23.6243 4.01338C23.6243 4.63897 23.6243 5.208 23.6243 5.84024C22.5486 5.84024 21.5526 5.84024 20.5108 5.84024C20.5108 4.55412 20.4414 3.28297 20.5363 2.02513C20.5922 1.28806 21.2003 0.852146 21.9558 0.847155C25.9619 0.825525 29.968 0.825525 33.9741 0.847155C34.7719 0.852146 35.4173 1.49438 35.4461 2.29134C35.4901 3.44935 35.458 4.61069 35.458 5.83525C34.4027 5.83525 33.4049 5.83525 32.2971 5.83525C32.2971 5.24626 32.2971 4.65561 32.2971 4.01172C29.3599 4.01338 26.531 4.01338 23.6243 4.01338Z" fill="#168C4E"/>
<path id="Vector_4" d="M29.6842 35.0771C28.5239 35.0771 27.4059 35.0771 26.2168 35.0771C26.2168 32.846 26.2168 30.6198 26.2168 28.3287C27.3534 28.3287 28.4917 28.3287 29.6842 28.3287C29.6842 30.5732 29.6842 32.8011 29.6842 35.0771Z" fill="#168C4E"/>
</g>
</svg>
