<svg width="70" height="70" viewBox="0 0 70 70" fill="none" xmlns="http://www.w3.org/2000/svg">
<path d="M7.88763 30.569C7.88763 27.2155 7.88594 23.8639 7.88932 20.5123C7.89102 19.2434 8.13331 18.9765 9.28545 18.9709C10.6968 18.9652 12.1184 18.8524 13.5196 18.9934C16.5084 19.2961 19.2464 18.1851 22.0285 17.3148C24.0193 16.6907 26.0237 16.1982 28.1027 16.3054C28.4636 16.3242 28.8126 16.6475 29.1667 16.8317C28.9736 17.2039 28.8414 17.6456 28.5771 17.9389C26.9268 19.7773 25.1461 21.4841 23.6008 23.424C21.8387 25.6346 21.9082 28.8058 23.5348 31.2288C25.0512 33.4901 27.8011 34.3567 30.202 33.2834C31.4812 32.7119 32.7468 32.0916 33.9939 31.4374C34.5547 31.1442 34.9901 31.2062 35.473 31.6104C39.1362 34.6706 43.1348 35.1443 47.3876 33.4262C48.0128 33.1743 48.5092 33.1311 48.9446 33.7947C50.3052 35.8699 51.7318 37.8944 53.0415 40.0091C54.4258 42.2442 53.5041 45.2931 51.2489 46.3533C50.517 46.6973 50.0375 46.5244 49.5885 45.827C48.0924 43.5111 46.5692 41.2197 45.0561 38.917C44.9901 38.8155 44.9206 38.7159 44.8562 38.6144C44.4919 38.041 44.0396 37.667 43.4448 38.1764C42.862 38.6745 43.0602 39.2648 43.4296 39.823C44.2971 41.1351 45.1578 42.4528 46.0219 43.7687C46.703 44.8063 47.3689 45.8552 48.0754 46.8721C48.5092 47.4943 48.5092 48.0771 48.0704 48.6542C47.7806 49.0339 47.474 49.4173 47.1148 49.7068C45.9118 50.6787 45.3713 50.5772 44.4564 49.2688C42.7112 46.7688 40.9694 44.2668 39.2277 41.7648C39.0548 41.5167 38.8888 41.2648 38.7126 41.0186C38.3212 40.4716 37.8146 40.2855 37.3165 40.7441C36.8471 41.1746 36.9386 41.7385 37.2944 42.2498C38.45 43.9096 39.6072 45.5695 40.761 47.2293C41.4506 48.2218 42.108 49.2425 42.8315 50.2012C43.35 50.8911 43.3584 51.5715 42.7807 52.096C42.1012 52.7126 41.3473 53.2878 40.5425 53.6581C39.802 54.0002 39.1209 53.7351 38.577 52.9005C36.842 50.2369 35.0325 47.6334 33.2501 45.0074C33.1315 44.8326 33.0129 44.6559 32.8875 44.4886C32.5266 44.0036 32.0657 43.9002 31.6167 44.2518C31.1508 44.6183 31.1288 45.154 31.4558 45.6578C31.9996 46.4962 32.5672 47.3139 33.1264 48.141C33.938 49.344 34.7343 50.5602 35.5679 51.7445C36.0779 52.4682 35.9576 53.0396 35.3764 53.6111C33.6533 55.3066 31.0288 55.0416 29.4412 52.9231C27.6012 50.4681 25.8069 47.9699 24.0177 45.468C23.689 45.0074 23.3653 44.81 22.8198 44.8157C19.8937 44.8458 17.1268 44.1145 14.5125 42.6295C14.0601 42.372 13.5077 42.2442 12.996 42.216C11.8693 42.1558 10.7375 42.1972 9.60907 42.1972C8.06892 42.1972 7.88932 42.0017 7.88932 40.3381C7.88763 37.0842 7.88763 33.8266 7.88763 30.569Z" fill="#8EDB8B"/>
<path d="M55.4716 43.0383C55.6936 40.6172 54.6177 38.8784 53.43 37.1697C52.2778 35.5118 51.185 33.803 50.0837 32.1432C50.104 32.038 50.0989 31.9571 50.1294 31.9289C50.6225 31.4797 51.0393 30.9627 50.531 30.271C50.0328 29.5905 49.4974 29.9665 48.962 30.3293C45.3226 32.7899 41.5798 33.2579 37.7489 30.9101C37.0424 30.4778 36.3782 29.9007 35.8072 29.2691C35.343 28.7559 34.9957 28.7333 34.4314 29.0322C32.9337 29.8255 31.4054 30.5511 29.8788 31.2804C27.9472 32.2034 26.014 31.6658 24.8991 29.9213C23.7063 28.0566 23.8775 25.8836 25.4057 24.126C27.261 21.9906 28.9994 19.7105 31.4308 18.2913C33.5351 17.0638 35.7496 16.2799 38.1302 16.2686C40.0973 16.2592 42.0746 16.31 44.0315 16.5036C45.4632 16.6465 46.7204 17.4548 47.7828 18.515C49.4042 20.1353 51.2849 20.8026 53.4401 20.765C55.8664 20.7218 58.2944 20.75 60.7207 20.7575C61.8982 20.7613 62.11 20.9962 62.1117 22.2858C62.1134 28.7051 62.1134 35.1226 62.1117 41.542C62.1117 42.7657 61.8694 43.0383 60.7783 43.044C59.0585 43.044 57.3388 43.0383 55.4716 43.0383Z" fill="#168C4E"/>
</svg>
