<svg width="57" height="51" viewBox="0 0 57 51" fill="none" xmlns="http://www.w3.org/2000/svg">
<g id="Group 1410138638">
<path id="Vector" d="M15.2859 43.6758C13.7251 39.997 12.1992 36.3978 10.6348 32.71C11.3931 32.3485 12.1219 31.9924 12.8582 31.6525C14.7134 30.7957 16.5522 29.9062 18.4332 29.1072C20.5572 28.2052 22.7677 28.1979 24.6948 29.438C27.0967 30.9818 29.806 31.5115 32.473 32.2418C33.2387 32.4515 34.0117 32.6377 34.77 32.8691C36.259 33.3229 37.0229 34.6624 36.6419 36.1122C36.2793 37.4969 34.9357 38.3719 33.4724 38.0175C30.268 37.2402 27.0857 36.3779 23.8942 35.55C23.8058 35.5265 23.7211 35.4903 23.631 35.4686C23.088 35.3385 22.5469 35.2879 22.3757 35.973C22.2045 36.6563 22.7291 36.8696 23.2481 37.0106C24.8402 37.4409 26.436 37.853 28.0336 38.267C29.3036 38.596 30.5772 38.9178 31.8491 39.2432C35.8394 40.2646 37.8069 39.0353 38.4843 35.0059C42.4083 33.9122 46.3637 32.7625 50.3522 31.7321C51.2688 31.4952 52.305 31.573 53.2695 31.6724C54.7364 31.8243 55.5536 33.0625 55.2389 34.4798C54.9389 35.8248 54.21 36.8968 52.8885 37.4029C46.8202 39.7259 40.7298 41.9946 34.6559 44.3067C32.1251 45.2702 29.6569 45.1165 27.1335 44.2289C25.2672 43.5709 23.3254 43.119 21.4204 42.5604C19.8192 42.0904 18.2841 42.188 16.8006 42.978C16.346 43.2166 15.8638 43.41 15.2859 43.6758Z" fill="#8EDB8B"/>
<path id="Vector_2" d="M36.5073 26.0254C34.1643 26.0182 31.858 25.7904 29.7119 24.7745C28.2192 24.0676 27.7849 23.3319 27.8971 21.8749C28.2211 17.6086 31.6096 14.2842 35.9238 13.9968C40.2878 13.7057 44.1419 16.5692 45.0438 20.7721C45.5573 23.1692 45.0199 24.3424 42.6345 25.0583C40.6669 25.6476 38.5908 25.888 36.5643 26.2821C36.5441 26.1972 36.5257 26.1122 36.5073 26.0254Z" fill="#168C4E"/>
<path id="Vector_3" d="M15.2383 47.7184C14.7763 48.1812 14.3916 48.7886 13.8358 49.076C12.7039 49.6636 11.4836 50.0848 10.2927 50.5602C9.00433 51.0754 8.19816 50.759 7.64968 49.4756C5.63427 44.7646 3.63542 40.0482 1.63289 35.3318C1.42122 34.8329 1.19484 34.3376 1.0163 33.8278C0.681319 32.8715 1.00158 32.0707 1.93842 31.6603C3.25258 31.0873 4.57962 30.5413 5.92139 30.0352C6.98155 29.6357 7.77115 30.0641 8.28099 31.2626C9.95774 35.1999 11.6253 39.1407 13.2947 43.0798C13.7769 44.2169 14.2646 45.3521 14.7377 46.4946C14.8757 46.8254 14.9733 47.1725 15.0874 47.5105C15.1408 47.5829 15.1905 47.6515 15.2383 47.7184Z" fill="#8EDB8B"/>
<path id="Vector_4" d="M46.8342 22.9887C46.8489 18.8002 45.0139 15.6746 41.2095 13.4475C42.0248 12.9015 42.6985 12.3466 43.4568 11.9579C48.9545 9.13783 55.6615 12.8889 56.0886 18.9755C56.1787 20.2699 55.5824 21.0815 54.5112 21.6817C52.7719 22.6561 49.1349 23.296 46.8342 22.9887Z" fill="#168C4E"/>
<path id="Vector_5" d="M31.7226 13.5291C28.0231 15.6839 26.223 18.8257 26.2157 23.0757C23.3775 23.0649 20.6241 22.9185 18.1448 21.4253C17.0571 20.7709 16.8564 19.7531 17.0276 18.5889C17.5264 15.1958 19.367 12.7843 22.6174 11.5749C25.877 10.3619 28.8753 11.0091 31.5073 13.2579C31.5735 13.3122 31.6159 13.3917 31.7226 13.5291Z" fill="#168C4E"/>
<path id="Vector_6" d="M47.4295 0.85918C49.6528 0.870027 51.4474 2.66691 51.4143 4.84704C51.3811 6.99463 49.5995 8.74633 47.4276 8.7644C45.2521 8.78248 43.3839 6.94944 43.3857 4.79823C43.3876 2.62895 45.2153 0.848334 47.4295 0.85918Z" fill="#168C4E"/>
<path id="Vector_7" d="M36.527 11.6948C34.2999 11.6911 32.5256 9.92319 32.5367 7.71956C32.5477 5.57739 34.3239 3.80762 36.4976 3.7787C38.651 3.74797 40.5542 5.59909 40.567 7.73583C40.5781 9.88884 38.7338 11.6984 36.527 11.6948Z" fill="#168C4E"/>
<path id="Vector_8" d="M29.649 4.75716C29.6729 6.95898 27.9041 8.74864 25.6826 8.76672C23.542 8.7848 21.6849 6.99875 21.6499 4.89094C21.615 2.69273 23.3709 0.897651 25.5906 0.859688C27.8268 0.823534 29.6251 2.54992 29.649 4.75716Z" fill="#168C4E"/>
</g>
</svg>
